# Blender 4.2.0
# www.blender.org
mtllib boxWing4.mtl
o body
v 0.250000 -0.250000 0.400000
v 0.250000 -0.250000 -0.400000
v -0.250000 -0.250000 0.400000
v -0.250000 -0.250000 -0.400000
v 0.250000 0.250000 0.400000
v 0.250000 0.250000 -0.400000
v -0.250000 0.250000 0.400000
v -0.250000 0.250000 -0.400000
v 0.125000 0.250000 -0.400000
v 0.000000 0.250000 -0.400000
v -0.125000 0.250000 -0.400000
v 0.250000 -0.125000 -0.400000
v 0.250000 0.000000 -0.400000
v 0.250000 0.125000 -0.400000
v 0.250000 -0.250000 0.200000
v 0.250000 -0.250000 0.000000
v 0.250000 -0.250000 -0.200000
v -0.250000 0.250000 -0.200000
v -0.250000 0.250000 0.000000
v -0.250000 0.250000 0.200000
v -0.250000 -0.250000 0.200000
v -0.250000 -0.250000 0.000000
v -0.250000 -0.250000 -0.200000
v 0.250000 0.250000 0.200000
v 0.250000 0.250000 0.000000
v 0.250000 0.250000 -0.200000
v -0.250000 -0.125000 0.400000
v -0.250000 0.000000 0.400000
v -0.250000 0.125000 0.400000
v 0.125000 -0.250000 0.400000
v 0.000000 -0.250000 0.400000
v -0.125000 -0.250000 0.400000
v -0.250000 0.125000 -0.400000
v -0.250000 0.000000 -0.400000
v -0.250000 -0.125000 -0.400000
v -0.125000 0.250000 0.400000
v 0.000000 0.250000 0.400000
v 0.125000 0.250000 0.400000
v 0.250000 0.125000 0.400000
v 0.250000 0.000000 0.400000
v 0.250000 -0.125000 0.400000
v -0.125000 -0.250000 -0.400000
v 0.000000 -0.250000 -0.400000
v 0.125000 -0.250000 -0.400000
v 0.250000 0.125000 -0.200000
v 0.250000 0.000000 -0.200000
v 0.250000 -0.125000 -0.200000
v 0.250000 0.125000 0.000000
v 0.250000 0.000000 0.000000
v 0.250000 -0.125000 0.000000
v 0.250000 0.125000 0.200000
v 0.250000 0.000000 0.200000
v 0.250000 -0.125000 0.200000
v 0.125000 -0.250000 -0.200000
v 0.000000 -0.250000 -0.200000
v -0.125000 -0.250000 -0.200000
v 0.125000 -0.250000 0.000000
v 0.000000 -0.250000 0.000000
v -0.125000 -0.250000 0.000000
v 0.125000 -0.250000 0.200000
v 0.000000 -0.250000 0.200000
v -0.125000 -0.250000 0.200000
v 0.125000 0.125000 -0.400000
v 0.000000 0.125000 -0.400000
v -0.125000 0.125000 -0.400000
v 0.125000 0.000000 -0.400000
v 0.000000 0.000000 -0.400000
v -0.125000 0.000000 -0.400000
v 0.125000 -0.125000 -0.400000
v 0.000000 -0.125000 -0.400000
v -0.125000 -0.125000 -0.400000
v -0.125000 0.250000 -0.200000
v 0.000000 0.250000 -0.200000
v 0.125000 0.250000 -0.200000
v -0.125000 0.250000 0.000000
v 0.000000 0.250000 0.000000
v 0.125000 0.250000 0.000000
v -0.125000 0.250000 0.200000
v 0.000000 0.250000 0.200000
v 0.125000 0.250000 0.200000
v -0.250000 -0.125000 -0.200000
v -0.250000 0.000000 -0.200000
v -0.250000 0.125000 -0.200000
v -0.250000 -0.125000 0.000000
v -0.250000 0.000000 0.000000
v -0.250000 0.125000 0.000000
v -0.250000 -0.125000 0.200000
v -0.250000 0.000000 0.200000
v -0.250000 0.125000 0.200000
v 0.125000 -0.125000 0.400000
v 0.000000 -0.125000 0.400000
v -0.125000 -0.125000 0.400000
v 0.125000 0.000000 0.400000
v 0.000000 0.000000 0.400000
v -0.125000 0.000000 0.400000
v 0.125000 0.125000 0.400000
v 0.000000 0.125000 0.400000
v -0.125000 0.125000 0.400000
vn -0.0000 1.0000 -0.0000
vn -0.0000 -0.0000 -1.0000
vn -0.0000 -1.0000 -0.0000
vn 1.0000 -0.0000 -0.0000
vn -1.0000 -0.0000 -0.0000
vn -0.0000 -0.0000 1.0000
vt 0.562500 0.250000
vt 0.562500 0.187500
vt 0.625000 0.187500
vt 0.625000 0.250000
vt 0.312500 0.750000
vt 0.312500 0.687500
vt 0.375000 0.687500
vt 0.375000 0.750000
vt 0.562500 0.750000
vt 0.562500 0.687500
vt 0.625000 0.687500
vt 0.625000 0.750000
vt 0.562500 0.500000
vt 0.562500 0.437500
vt 0.625000 0.437500
vt 0.625000 0.500000
vt 0.375000 0.500000
vt 0.375000 0.437500
vt 0.437500 0.437500
vt 0.437500 0.500000
vt 0.500000 0.437500
vt 0.500000 0.500000
vt 0.375000 0.312500
vt 0.375000 0.250000
vt 0.437500 0.250000
vt 0.437500 0.312500
vt 0.375000 0.375000
vt 0.437500 0.375000
vt 0.500000 0.250000
vt 0.500000 0.312500
vt 0.500000 0.375000
vt 0.562500 0.312500
vt 0.562500 0.375000
vt 0.625000 0.312500
vt 0.625000 0.375000
vt 0.437500 0.687500
vt 0.437500 0.750000
vt 0.500000 0.687500
vt 0.500000 0.750000
vt 0.375000 0.562500
vt 0.437500 0.562500
vt 0.375000 0.625000
vt 0.437500 0.625000
vt 0.500000 0.562500
vt 0.500000 0.625000
vt 0.562500 0.562500
vt 0.562500 0.625000
vt 0.625000 0.562500
vt 0.625000 0.625000
vt 0.125000 0.750000
vt 0.125000 0.687500
vt 0.187500 0.687500
vt 0.187500 0.750000
vt 0.250000 0.687500
vt 0.250000 0.750000
vt 0.125000 0.562500
vt 0.125000 0.500000
vt 0.187500 0.500000
vt 0.187500 0.562500
vt 0.125000 0.625000
vt 0.187500 0.625000
vt 0.250000 0.500000
vt 0.250000 0.562500
vt 0.250000 0.625000
vt 0.312500 0.500000
vt 0.312500 0.562500
vt 0.312500 0.625000
vt 0.375000 0.187500
vt 0.437500 0.187500
vt 0.500000 0.187500
vt 0.375000 0.062500
vt 0.375000 0.000000
vt 0.437500 0.000000
vt 0.437500 0.062500
vt 0.375000 0.125000
vt 0.437500 0.125000
vt 0.500000 0.000000
vt 0.500000 0.062500
vt 0.500000 0.125000
vt 0.562500 0.000000
vt 0.562500 0.062500
vt 0.562500 0.125000
vt 0.625000 0.000000
vt 0.625000 0.062500
vt 0.625000 0.125000
vt 0.375000 1.000000
vt 0.375000 0.937500
vt 0.437500 0.937500
vt 0.437500 1.000000
vt 0.500000 0.937500
vt 0.500000 1.000000
vt 0.562500 0.937500
vt 0.562500 1.000000
vt 0.375000 0.812500
vt 0.437500 0.812500
vt 0.375000 0.875000
vt 0.437500 0.875000
vt 0.500000 0.812500
vt 0.500000 0.875000
vt 0.562500 0.812500
vt 0.562500 0.875000
vt 0.625000 0.812500
vt 0.625000 0.875000
vt 0.625000 0.937500
vt 0.687500 0.687500
vt 0.687500 0.750000
vt 0.750000 0.687500
vt 0.750000 0.750000
vt 0.812500 0.687500
vt 0.812500 0.750000
vt 0.687500 0.500000
vt 0.687500 0.562500
vt 0.687500 0.625000
vt 0.750000 0.500000
vt 0.750000 0.562500
vt 0.750000 0.625000
vt 0.812500 0.500000
vt 0.812500 0.562500
vt 0.812500 0.625000
vt 0.875000 0.500000
vt 0.875000 0.562500
vt 0.875000 0.625000
vt 0.875000 0.687500
vt 0.875000 0.750000
vt 0.625000 1.000000
s 0
usemtl box
f 24/1/1 80/2/1 38/3/1 5/4/1
f 35/5/2 71/6/2 42/7/2 4/8/2
f 21/9/3 62/10/3 32/11/3 3/12/3
f 15/13/4 53/14/4 41/15/4 1/16/4
f 2/17/4 12/18/4 47/19/4 17/20/4
f 17/20/4 47/19/4 50/21/4 16/22/4
f 16/22/4 50/21/4 53/14/4 15/13/4
f 14/23/4 6/24/4 26/25/4 45/26/4
f 13/27/4 14/23/4 45/26/4 46/28/4
f 12/18/4 13/27/4 46/28/4 47/19/4
f 45/26/4 26/25/4 25/29/4 48/30/4
f 46/28/4 45/26/4 48/30/4 49/31/4
f 47/19/4 46/28/4 49/31/4 50/21/4
f 48/30/4 25/29/4 24/1/4 51/32/4
f 49/31/4 48/30/4 51/32/4 52/33/4
f 50/21/4 49/31/4 52/33/4 53/14/4
f 51/32/4 24/1/4 5/4/4 39/34/4
f 52/33/4 51/32/4 39/34/4 40/35/4
f 53/14/4 52/33/4 40/35/4 41/15/4
f 4/8/3 42/7/3 56/36/3 23/37/3
f 23/37/3 56/36/3 59/38/3 22/39/3
f 22/39/3 59/38/3 62/10/3 21/9/3
f 44/40/3 2/17/3 17/20/3 54/41/3
f 43/42/3 44/40/3 54/41/3 55/43/3
f 42/7/3 43/42/3 55/43/3 56/36/3
f 54/41/3 17/20/3 16/22/3 57/44/3
f 55/43/3 54/41/3 57/44/3 58/45/3
f 56/36/3 55/43/3 58/45/3 59/38/3
f 57/44/3 16/22/3 15/13/3 60/46/3
f 58/45/3 57/44/3 60/46/3 61/47/3
f 59/38/3 58/45/3 61/47/3 62/10/3
f 60/46/3 15/13/3 1/16/3 30/48/3
f 61/47/3 60/46/3 30/48/3 31/49/3
f 62/10/3 61/47/3 31/49/3 32/11/3
f 8/50/2 11/51/2 65/52/2 33/53/2
f 33/53/2 65/52/2 68/54/2 34/55/2
f 34/55/2 68/54/2 71/6/2 35/5/2
f 9/56/2 6/57/2 14/58/2 63/59/2
f 10/60/2 9/56/2 63/59/2 64/61/2
f 11/51/2 10/60/2 64/61/2 65/52/2
f 63/59/2 14/58/2 13/62/2 66/63/2
f 64/61/2 63/59/2 66/63/2 67/64/2
f 65/52/2 64/61/2 67/64/2 68/54/2
f 66/63/2 13/62/2 12/65/2 69/66/2
f 67/64/2 66/63/2 69/66/2 70/67/2
f 68/54/2 67/64/2 70/67/2 71/6/2
f 69/66/2 12/65/2 2/17/2 44/40/2
f 70/67/2 69/66/2 44/40/2 43/42/2
f 71/6/2 70/67/2 43/42/2 42/7/2
f 6/24/1 9/68/1 74/69/1 26/25/1
f 26/25/1 74/69/1 77/70/1 25/29/1
f 25/29/1 77/70/1 80/2/1 24/1/1
f 11/71/1 8/72/1 18/73/1 72/74/1
f 10/75/1 11/71/1 72/74/1 73/76/1
f 9/68/1 10/75/1 73/76/1 74/69/1
f 72/74/1 18/73/1 19/77/1 75/78/1
f 73/76/1 72/74/1 75/78/1 76/79/1
f 74/69/1 73/76/1 76/79/1 77/70/1
f 75/78/1 19/77/1 20/80/1 78/81/1
f 76/79/1 75/78/1 78/81/1 79/82/1
f 77/70/1 76/79/1 79/82/1 80/2/1
f 78/81/1 20/80/1 7/83/1 36/84/1
f 79/82/1 78/81/1 36/84/1 37/85/1
f 80/2/1 79/82/1 37/85/1 38/3/1
f 8/86/5 33/87/5 83/88/5 18/89/5
f 18/89/5 83/88/5 86/90/5 19/91/5
f 19/91/5 86/90/5 89/92/5 20/93/5
f 35/94/5 4/8/5 23/37/5 81/95/5
f 34/96/5 35/94/5 81/95/5 82/97/5
f 33/87/5 34/96/5 82/97/5 83/88/5
f 81/95/5 23/37/5 22/39/5 84/98/5
f 82/97/5 81/95/5 84/98/5 85/99/5
f 83/88/5 82/97/5 85/99/5 86/90/5
f 84/98/5 22/39/5 21/9/5 87/100/5
f 85/99/5 84/98/5 87/100/5 88/101/5
f 86/90/5 85/99/5 88/101/5 89/92/5
f 87/100/5 21/9/5 3/12/5 27/102/5
f 88/101/5 87/100/5 27/102/5 28/103/5
f 89/92/5 88/101/5 28/103/5 29/104/5
f 3/12/6 32/11/6 92/105/6 27/106/6
f 27/106/6 92/105/6 95/107/6 28/108/6
f 28/108/6 95/107/6 98/109/6 29/110/6
f 30/48/6 1/16/6 41/111/6 90/112/6
f 31/49/6 30/48/6 90/112/6 91/113/6
f 32/11/6 31/49/6 91/113/6 92/105/6
f 90/112/6 41/111/6 40/114/6 93/115/6
f 91/113/6 90/112/6 93/115/6 94/116/6
f 92/105/6 91/113/6 94/116/6 95/107/6
f 93/115/6 40/114/6 39/117/6 96/118/6
f 94/116/6 93/115/6 96/118/6 97/119/6
f 95/107/6 94/116/6 97/119/6 98/109/6
f 96/118/6 39/117/6 5/120/6 38/121/6
f 97/119/6 96/118/6 38/121/6 37/122/6
f 29/110/6 98/109/6 36/123/6 7/124/6
f 20/93/5 89/92/5 29/104/5 7/125/5
f 98/109/6 97/119/6 37/122/6 36/123/6
o Cube
v 0.250000 0.250000 -0.025000
v 0.250000 0.250000 0.025000
v 1.250000 0.250000 -0.025000
v 1.250000 0.250000 0.025000
v 0.250000 -0.250000 -0.025000
v 0.250000 -0.250000 0.025000
v 1.250000 -0.250000 -0.025000
v 1.250000 -0.250000 0.025000
v 0.450000 0.250000 0.025000
v 0.650000 0.250000 0.025000
v 0.850000 0.250000 0.025000
v 1.050000 0.250000 0.025000
v 1.250000 0.150000 0.025000
v 1.250000 0.050000 0.025000
v 1.250000 -0.050000 0.025000
v 1.250000 -0.150000 0.025000
v 1.050000 -0.250000 0.025000
v 0.850000 -0.250000 0.025000
v 0.650000 -0.250000 0.025000
v 0.450000 -0.250000 0.025000
v 0.250000 -0.150000 0.025000
v 0.250000 -0.050000 0.025000
v 0.250000 0.050000 0.025000
v 0.250000 0.150000 0.025000
v 1.050000 -0.150000 0.025000
v 0.850000 -0.150000 0.025000
v 0.650000 -0.150000 0.025000
v 0.450000 -0.150000 0.025000
v 1.050000 -0.050000 0.025000
v 0.850000 -0.050000 0.025000
v 0.650000 -0.050000 0.025000
v 0.450000 -0.050000 0.025000
v 1.050000 0.050000 0.025000
v 0.850000 0.050000 0.025000
v 0.650000 0.050000 0.025000
v 0.450000 0.050000 0.025000
v 1.050000 0.150000 0.025000
v 0.850000 0.150000 0.025000
v 0.650000 0.150000 0.025000
v 0.450000 0.150000 0.025000
v 1.050000 0.250000 -0.025000
v 0.850000 0.250000 -0.025000
v 0.650000 0.250000 -0.025000
v 0.450000 0.250000 -0.025000
v 1.250000 -0.150000 -0.025000
v 1.250000 -0.050000 -0.025000
v 1.250000 0.050000 -0.025000
v 1.250000 0.150000 -0.025000
v 0.450000 -0.250000 -0.025000
v 0.650000 -0.250000 -0.025000
v 0.850000 -0.250000 -0.025000
v 1.050000 -0.250000 -0.025000
v 0.250000 0.150000 -0.025000
v 0.250000 0.050000 -0.025000
v 0.250000 -0.050000 -0.025000
v 0.250000 -0.150000 -0.025000
v 1.050000 0.150000 -0.025000
v 0.850000 0.150000 -0.025000
v 0.650000 0.150000 -0.025000
v 0.450000 0.150000 -0.025000
v 1.050000 0.050000 -0.025000
v 0.850000 0.050000 -0.025000
v 0.650000 0.050000 -0.025000
v 0.450000 0.050000 -0.025000
v 1.050000 -0.050000 -0.025000
v 0.850000 -0.050000 -0.025000
v 0.650000 -0.050000 -0.025000
v 0.450000 -0.050000 -0.025000
v 1.050000 -0.150000 -0.025000
v 0.850000 -0.150000 -0.025000
v 0.650000 -0.150000 -0.025000
v 0.450000 -0.150000 -0.025000
vn -0.0000 1.0000 -0.0000
vn 1.0000 -0.0000 -0.0000
vn -0.0000 -1.0000 -0.0000
vn -1.0000 -0.0000 -0.0000
vn -0.0000 -0.0000 -1.0000
vn -0.0000 -0.0000 1.0000
vt 0.625000 0.050000
vt 0.625000 0.100000
vt 0.375000 0.100000
vt 0.375000 0.050000
vt 0.625000 0.150000
vt 0.375000 0.150000
vt 0.625000 0.200000
vt 0.625000 0.250000
vt 0.375000 0.250000
vt 0.375000 0.200000
vt 0.625000 0.300000
vt 0.375000 0.300000
vt 0.625000 0.350000
vt 0.375000 0.350000
vt 0.625000 0.400000
vt 0.375000 0.400000
vt 0.625000 0.450000
vt 0.625000 0.500000
vt 0.375000 0.500000
vt 0.375000 0.450000
vt 0.625000 0.550000
vt 0.375000 0.550000
vt 0.625000 0.600000
vt 0.375000 0.600000
vt 0.625000 0.650000
vt 0.375000 0.650000
vt 0.625000 0.700000
vt 0.625000 0.750000
vt 0.375000 0.750000
vt 0.375000 0.700000
vt 0.625000 0.800000
vt 0.375000 0.800000
vt 0.625000 0.850000
vt 0.375000 0.850000
vt 0.625000 0.900000
vt 0.375000 0.900000
vt 0.625000 0.950000
vt 0.625000 1.000000
vt 0.375000 1.000000
vt 0.375000 0.950000
vt 0.325000 0.750000
vt 0.325000 0.700000
vt 0.825000 0.750000
vt 0.825000 0.700000
vt 0.875000 0.700000
vt 0.875000 0.750000
vt 0.675000 0.700000
vt 0.675000 0.750000
vt 0.725000 0.700000
vt 0.725000 0.750000
vt 0.775000 0.700000
vt 0.775000 0.750000
vt 0.675000 0.500000
vt 0.675000 0.550000
vt 0.675000 0.600000
vt 0.675000 0.650000
vt 0.725000 0.500000
vt 0.725000 0.550000
vt 0.725000 0.600000
vt 0.725000 0.650000
vt 0.775000 0.500000
vt 0.775000 0.550000
vt 0.775000 0.600000
vt 0.775000 0.650000
vt 0.825000 0.500000
vt 0.825000 0.550000
vt 0.825000 0.600000
vt 0.825000 0.650000
vt 0.875000 0.500000
vt 0.875000 0.550000
vt 0.875000 0.600000
vt 0.875000 0.650000
vt 0.125000 0.750000
vt 0.125000 0.700000
vt 0.175000 0.700000
vt 0.175000 0.750000
vt 0.225000 0.700000
vt 0.225000 0.750000
vt 0.275000 0.700000
vt 0.275000 0.750000
vt 0.125000 0.550000
vt 0.125000 0.500000
vt 0.175000 0.500000
vt 0.175000 0.550000
vt 0.125000 0.600000
vt 0.175000 0.600000
vt 0.125000 0.650000
vt 0.175000 0.650000
vt 0.225000 0.500000
vt 0.225000 0.550000
vt 0.225000 0.600000
vt 0.225000 0.650000
vt 0.275000 0.550000
vt 0.275000 0.600000
vt 0.275000 0.650000
vt 0.275000 0.500000
vt 0.325000 0.500000
vt 0.325000 0.550000
vt 0.325000 0.600000
vt 0.325000 0.650000
vt 0.625000 0.000000
vt 0.375000 0.000000
s 0
f 107/126/7 108/127/7 141/128/7 142/129/7
f 108/127/7 109/130/7 140/131/7 141/128/7
f 110/132/7 102/133/7 101/134/7 139/135/7
f 109/130/7 110/132/7 139/135/7 140/131/7
f 102/133/8 111/136/8 146/137/8 101/134/8
f 111/136/8 112/138/8 145/139/8 146/137/8
f 112/138/8 113/140/8 144/141/8 145/139/8
f 114/142/8 106/143/8 105/144/8 143/145/8
f 113/140/8 114/142/8 143/145/8 144/141/8
f 106/143/9 115/146/9 150/147/9 105/144/9
f 115/146/9 116/148/9 149/149/9 150/147/9
f 116/148/9 117/150/9 148/151/9 149/149/9
f 118/152/9 104/153/9 103/154/9 147/155/9
f 117/150/9 118/152/9 147/155/9 148/151/9
f 104/153/10 119/156/10 154/157/10 103/154/10
f 119/156/10 120/158/10 153/159/10 154/157/10
f 120/158/10 121/160/10 152/161/10 153/159/10
f 122/162/10 100/163/10 99/164/10 151/165/10
f 121/160/10 122/162/10 151/165/10 152/161/10
f 154/166/11 170/167/11 147/155/11 103/154/11
f 122/168/12 138/169/12 107/170/12 100/171/12
f 104/153/12 118/152/12 126/172/12 119/173/12
f 119/173/12 126/172/12 130/174/12 120/175/12
f 120/175/12 130/174/12 134/176/12 121/177/12
f 121/177/12 134/176/12 138/169/12 122/168/12
f 115/146/12 106/143/12 114/178/12 123/179/12
f 116/148/12 115/146/12 123/179/12 124/180/12
f 117/150/12 116/148/12 124/180/12 125/181/12
f 118/152/12 117/150/12 125/181/12 126/172/12
f 123/179/12 114/178/12 113/182/12 127/183/12
f 124/180/12 123/179/12 127/183/12 128/184/12
f 125/181/12 124/180/12 128/184/12 129/185/12
f 126/172/12 125/181/12 129/185/12 130/174/12
f 127/183/12 113/182/12 112/186/12 131/187/12
f 128/184/12 127/183/12 131/187/12 132/188/12
f 129/185/12 128/184/12 132/188/12 133/189/12
f 130/174/12 129/185/12 133/189/12 134/176/12
f 131/187/12 112/186/12 111/190/12 135/191/12
f 132/188/12 131/187/12 135/191/12 136/192/12
f 133/189/12 132/188/12 136/192/12 137/193/12
f 134/176/12 133/189/12 137/193/12 138/169/12
f 135/191/12 111/190/12 102/194/12 110/195/12
f 136/192/12 135/191/12 110/195/12 109/196/12
f 137/193/12 136/192/12 109/196/12 108/197/12
f 138/169/12 137/193/12 108/197/12 107/170/12
f 99/198/11 142/199/11 158/200/11 151/201/11
f 151/201/11 158/200/11 162/202/11 152/203/11
f 152/203/11 162/202/11 166/204/11 153/205/11
f 153/205/11 166/204/11 170/167/11 154/166/11
f 139/206/11 101/207/11 146/208/11 155/209/11
f 140/210/11 139/206/11 155/209/11 156/211/11
f 141/212/11 140/210/11 156/211/11 157/213/11
f 142/199/11 141/212/11 157/213/11 158/200/11
f 155/209/11 146/208/11 145/214/11 159/215/11
f 156/211/11 155/209/11 159/215/11 160/216/11
f 157/213/11 156/211/11 160/216/11 161/217/11
f 158/200/11 157/213/11 161/217/11 162/202/11
f 160/216/11 159/215/11 163/218/11 164/219/11
f 161/217/11 160/216/11 164/219/11 165/220/11
f 162/202/11 161/217/11 165/220/11 166/204/11
f 163/218/11 144/221/11 143/222/11 167/223/11
f 164/219/11 163/218/11 167/223/11 168/224/11
f 165/220/11 164/219/11 168/224/11 169/225/11
f 166/204/11 165/220/11 169/225/11 170/167/11
f 167/223/11 143/222/11 105/144/11 150/147/11
f 168/224/11 167/223/11 150/147/11 149/149/11
f 169/225/11 168/224/11 149/149/11 148/151/11
f 100/226/7 107/126/7 142/129/7 99/227/7
f 159/215/11 145/214/11 144/221/11 163/218/11
f 170/167/11 169/225/11 148/151/11 147/155/11
o Cube.001
v -1.250000 0.250000 -0.025000
v -1.250000 0.250000 0.025000
v -0.250000 0.250000 -0.025000
v -0.250000 0.250000 0.025000
v -1.250000 -0.250000 -0.025000
v -1.250000 -0.250000 0.025000
v -0.250000 -0.250000 -0.025000
v -0.250000 -0.250000 0.025000
v -1.050000 0.250000 0.025000
v -0.850000 0.250000 0.025000
v -0.650000 0.250000 0.025000
v -0.450000 0.250000 0.025000
v -0.250000 0.150000 0.025000
v -0.250000 0.050000 0.025000
v -0.250000 -0.050000 0.025000
v -0.250000 -0.150000 0.025000
v -0.450000 -0.250000 0.025000
v -0.650000 -0.250000 0.025000
v -0.850000 -0.250000 0.025000
v -1.050000 -0.250000 0.025000
v -1.250000 -0.150000 0.025000
v -1.250000 -0.050000 0.025000
v -1.250000 0.050000 0.025000
v -1.250000 0.150000 0.025000
v -0.450000 -0.150000 0.025000
v -0.650000 -0.150000 0.025000
v -0.850000 -0.150000 0.025000
v -1.050000 -0.150000 0.025000
v -0.450000 -0.050000 0.025000
v -0.650000 -0.050000 0.025000
v -0.850000 -0.050000 0.025000
v -1.050000 -0.050000 0.025000
v -0.450000 0.050000 0.025000
v -0.650000 0.050000 0.025000
v -0.850000 0.050000 0.025000
v -1.050000 0.050000 0.025000
v -0.450000 0.150000 0.025000
v -0.650000 0.150000 0.025000
v -0.850000 0.150000 0.025000
v -1.050000 0.150000 0.025000
v -0.450000 0.250000 -0.025000
v -0.650000 0.250000 -0.025000
v -0.850000 0.250000 -0.025000
v -1.050000 0.250000 -0.025000
v -0.250000 -0.150000 -0.025000
v -0.250000 -0.050000 -0.025000
v -0.250000 0.050000 -0.025000
v -0.250000 0.150000 -0.025000
v -1.050000 -0.250000 -0.025000
v -0.850000 -0.250000 -0.025000
v -0.650000 -0.250000 -0.025000
v -0.450000 -0.250000 -0.025000
v -1.250000 0.150000 -0.025000
v -1.250000 0.050000 -0.025000
v -1.250000 -0.050000 -0.025000
v -1.250000 -0.150000 -0.025000
v -0.450000 0.150000 -0.025000
v -0.650000 0.150000 -0.025000
v -0.850000 0.150000 -0.025000
v -1.050000 0.150000 -0.025000
v -0.450000 0.050000 -0.025000
v -0.650000 0.050000 -0.025000
v -0.850000 0.050000 -0.025000
v -1.050000 0.050000 -0.025000
v -0.450000 -0.050000 -0.025000
v -0.650000 -0.050000 -0.025000
v -0.850000 -0.050000 -0.025000
v -1.050000 -0.050000 -0.025000
v -0.450000 -0.150000 -0.025000
v -0.650000 -0.150000 -0.025000
v -0.850000 -0.150000 -0.025000
v -1.050000 -0.150000 -0.025000
vn -0.0000 1.0000 -0.0000
vn 1.0000 -0.0000 -0.0000
vn -0.0000 -1.0000 -0.0000
vn -1.0000 -0.0000 -0.0000
vn -0.0000 -0.0000 -1.0000
vn -0.0000 -0.0000 1.0000
vt 0.625000 0.050000
vt 0.625000 0.100000
vt 0.375000 0.100000
vt 0.375000 0.050000
vt 0.625000 0.150000
vt 0.375000 0.150000
vt 0.625000 0.200000
vt 0.625000 0.250000
vt 0.375000 0.250000
vt 0.375000 0.200000
vt 0.625000 0.300000
vt 0.375000 0.300000
vt 0.625000 0.350000
vt 0.375000 0.350000
vt 0.625000 0.400000
vt 0.375000 0.400000
vt 0.625000 0.450000
vt 0.625000 0.500000
vt 0.375000 0.500000
vt 0.375000 0.450000
vt 0.625000 0.550000
vt 0.375000 0.550000
vt 0.625000 0.600000
vt 0.375000 0.600000
vt 0.625000 0.650000
vt 0.375000 0.650000
vt 0.625000 0.700000
vt 0.625000 0.750000
vt 0.375000 0.750000
vt 0.375000 0.700000
vt 0.625000 0.800000
vt 0.375000 0.800000
vt 0.625000 0.850000
vt 0.375000 0.850000
vt 0.625000 0.900000
vt 0.375000 0.900000
vt 0.625000 0.950000
vt 0.625000 1.000000
vt 0.375000 1.000000
vt 0.375000 0.950000
vt 0.325000 0.750000
vt 0.325000 0.700000
vt 0.825000 0.750000
vt 0.825000 0.700000
vt 0.875000 0.700000
vt 0.875000 0.750000
vt 0.675000 0.700000
vt 0.675000 0.750000
vt 0.725000 0.700000
vt 0.725000 0.750000
vt 0.775000 0.700000
vt 0.775000 0.750000
vt 0.675000 0.500000
vt 0.675000 0.550000
vt 0.675000 0.600000
vt 0.675000 0.650000
vt 0.725000 0.500000
vt 0.725000 0.550000
vt 0.725000 0.600000
vt 0.725000 0.650000
vt 0.775000 0.500000
vt 0.775000 0.550000
vt 0.775000 0.600000
vt 0.775000 0.650000
vt 0.825000 0.500000
vt 0.825000 0.550000
vt 0.825000 0.600000
vt 0.825000 0.650000
vt 0.875000 0.500000
vt 0.875000 0.550000
vt 0.875000 0.600000
vt 0.875000 0.650000
vt 0.125000 0.750000
vt 0.125000 0.700000
vt 0.175000 0.700000
vt 0.175000 0.750000
vt 0.225000 0.700000
vt 0.225000 0.750000
vt 0.275000 0.700000
vt 0.275000 0.750000
vt 0.125000 0.550000
vt 0.125000 0.500000
vt 0.175000 0.500000
vt 0.175000 0.550000
vt 0.125000 0.600000
vt 0.175000 0.600000
vt 0.125000 0.650000
vt 0.175000 0.650000
vt 0.225000 0.500000
vt 0.225000 0.550000
vt 0.225000 0.600000
vt 0.225000 0.650000
vt 0.275000 0.550000
vt 0.275000 0.600000
vt 0.275000 0.650000
vt 0.275000 0.500000
vt 0.325000 0.500000
vt 0.325000 0.550000
vt 0.325000 0.600000
vt 0.325000 0.650000
vt 0.625000 0.000000
vt 0.375000 0.000000
s 0
f 179/228/13 180/229/13 213/230/13 214/231/13
f 180/229/13 181/232/13 212/233/13 213/230/13
f 182/234/13 174/235/13 173/236/13 211/237/13
f 181/232/13 182/234/13 211/237/13 212/233/13
f 174/235/14 183/238/14 218/239/14 173/236/14
f 183/238/14 184/240/14 217/241/14 218/239/14
f 184/240/14 185/242/14 216/243/14 217/241/14
f 186/244/14 178/245/14 177/246/14 215/247/14
f 185/242/14 186/244/14 215/247/14 216/243/14
f 178/245/15 187/248/15 222/249/15 177/246/15
f 187/248/15 188/250/15 221/251/15 222/249/15
f 188/250/15 189/252/15 220/253/15 221/251/15
f 190/254/15 176/255/15 175/256/15 219/257/15
f 189/252/15 190/254/15 219/257/15 220/253/15
f 176/255/16 191/258/16 226/259/16 175/256/16
f 191/258/16 192/260/16 225/261/16 226/259/16
f 192/260/16 193/262/16 224/263/16 225/261/16
f 194/264/16 172/265/16 171/266/16 223/267/16
f 193/262/16 194/264/16 223/267/16 224/263/16
f 226/268/17 242/269/17 219/257/17 175/256/17
f 194/270/18 210/271/18 179/272/18 172/273/18
f 176/255/18 190/254/18 198/274/18 191/275/18
f 191/275/18 198/274/18 202/276/18 192/277/18
f 192/277/18 202/276/18 206/278/18 193/279/18
f 193/279/18 206/278/18 210/271/18 194/270/18
f 187/248/18 178/245/18 186/280/18 195/281/18
f 188/250/18 187/248/18 195/281/18 196/282/18
f 189/252/18 188/250/18 196/282/18 197/283/18
f 190/254/18 189/252/18 197/283/18 198/274/18
f 195/281/18 186/280/18 185/284/18 199/285/18
f 196/282/18 195/281/18 199/285/18 200/286/18
f 197/283/18 196/282/18 200/286/18 201/287/18
f 198/274/18 197/283/18 201/287/18 202/276/18
f 199/285/18 185/284/18 184/288/18 203/289/18
f 200/286/18 199/285/18 203/289/18 204/290/18
f 201/287/18 200/286/18 204/290/18 205/291/18
f 202/276/18 201/287/18 205/291/18 206/278/18
f 203/289/18 184/288/18 183/292/18 207/293/18
f 204/290/18 203/289/18 207/293/18 208/294/18
f 205/291/18 204/290/18 208/294/18 209/295/18
f 206/278/18 205/291/18 209/295/18 210/271/18
f 207/293/18 183/292/18 174/296/18 182/297/18
f 208/294/18 207/293/18 182/297/18 181/298/18
f 209/295/18 208/294/18 181/298/18 180/299/18
f 210/271/18 209/295/18 180/299/18 179/272/18
f 171/300/17 214/301/17 230/302/17 223/303/17
f 223/303/17 230/302/17 234/304/17 224/305/17
f 224/305/17 234/304/17 238/306/17 225/307/17
f 225/307/17 238/306/17 242/269/17 226/268/17
f 211/308/17 173/309/17 218/310/17 227/311/17
f 212/312/17 211/308/17 227/311/17 228/313/17
f 213/314/17 212/312/17 228/313/17 229/315/17
f 214/301/17 213/314/17 229/315/17 230/302/17
f 227/311/17 218/310/17 217/316/17 231/317/17
f 228/313/17 227/311/17 231/317/17 232/318/17
f 229/315/17 228/313/17 232/318/17 233/319/17
f 230/302/17 229/315/17 233/319/17 234/304/17
f 232/318/17 231/317/17 235/320/17 236/321/17
f 233/319/17 232/318/17 236/321/17 237/322/17
f 234/304/17 233/319/17 237/322/17 238/306/17
f 235/320/17 216/323/17 215/324/17 239/325/17
f 236/321/17 235/320/17 239/325/17 240/326/17
f 237/322/17 236/321/17 240/326/17 241/327/17
f 238/306/17 237/322/17 241/327/17 242/269/17
f 239/325/17 215/324/17 177/246/17 222/249/17
f 240/326/17 239/325/17 222/249/17 221/251/17
f 241/327/17 240/326/17 221/251/17 220/253/17
f 172/328/13 179/228/13 214/231/13 171/329/13
f 231/317/17 217/316/17 216/323/17 235/320/17
f 242/269/17 241/327/17 220/253/17 219/257/17
